<svg xmlns="http://www.w3.org/2000/svg" viewBox="0 0 800 600" width="800" height="600" role="img">
  <rect width="800" height="600" fill="#F1F0EA"/>
  <line x1="40" y1="0" x2="40" y2="600" stroke="#D8D6CD" stroke-width="1"/><line x1="80" y1="0" x2="80" y2="600" stroke="#D8D6CD" stroke-width="1"/><line x1="120" y1="0" x2="120" y2="600" stroke="#D8D6CD" stroke-width="1"/><line x1="160" y1="0" x2="160" y2="600" stroke="#D8D6CD" stroke-width="1"/><line x1="200" y1="0" x2="200" y2="600" stroke="#D8D6CD" stroke-width="1"/><line x1="240" y1="0" x2="240" y2="600" stroke="#D8D6CD" stroke-width="1"/><line x1="280" y1="0" x2="280" y2="600" stroke="#D8D6CD" stroke-width="1"/><line x1="320" y1="0" x2="320" y2="600" stroke="#D8D6CD" stroke-width="1"/><line x1="360" y1="0" x2="360" y2="600" stroke="#D8D6CD" stroke-width="1"/><line x1="400" y1="0" x2="400" y2="600" stroke="#D8D6CD" stroke-width="1"/><line x1="440" y1="0" x2="440" y2="600" stroke="#D8D6CD" stroke-width="1"/><line x1="480" y1="0" x2="480" y2="600" stroke="#D8D6CD" stroke-width="1"/><line x1="520" y1="0" x2="520" y2="600" stroke="#D8D6CD" stroke-width="1"/><line x1="560" y1="0" x2="560" y2="600" stroke="#D8D6CD" stroke-width="1"/><line x1="600" y1="0" x2="600" y2="600" stroke="#D8D6CD" stroke-width="1"/><line x1="640" y1="0" x2="640" y2="600" stroke="#D8D6CD" stroke-width="1"/><line x1="680" y1="0" x2="680" y2="600" stroke="#D8D6CD" stroke-width="1"/><line x1="720" y1="0" x2="720" y2="600" stroke="#D8D6CD" stroke-width="1"/><line x1="760" y1="0" x2="760" y2="600" stroke="#D8D6CD" stroke-width="1"/><line x1="0" y1="40" x2="800" y2="40" stroke="#D8D6CD" stroke-width="1"/><line x1="0" y1="80" x2="800" y2="80" stroke="#D8D6CD" stroke-width="1"/><line x1="0" y1="120" x2="800" y2="120" stroke="#D8D6CD" stroke-width="1"/><line x1="0" y1="160" x2="800" y2="160" stroke="#D8D6CD" stroke-width="1"/><line x1="0" y1="200" x2="800" y2="200" stroke="#D8D6CD" stroke-width="1"/><line x1="0" y1="240" x2="800" y2="240" stroke="#D8D6CD" stroke-width="1"/><line x1="0" y1="280" x2="800" y2="280" stroke="#D8D6CD" stroke-width="1"/><line x1="0" y1="320" x2="800" y2="320" stroke="#D8D6CD" stroke-width="1"/><line x1="0" y1="360" x2="800" y2="360" stroke="#D8D6CD" stroke-width="1"/><line x1="0" y1="400" x2="800" y2="400" stroke="#D8D6CD" stroke-width="1"/><line x1="0" y1="440" x2="800" y2="440" stroke="#D8D6CD" stroke-width="1"/><line x1="0" y1="480" x2="800" y2="480" stroke="#D8D6CD" stroke-width="1"/><line x1="0" y1="520" x2="800" y2="520" stroke="#D8D6CD" stroke-width="1"/><line x1="0" y1="560" x2="800" y2="560" stroke="#D8D6CD" stroke-width="1"/>
  <line x1="0" y1="470" x2="800" y2="470" stroke="#16150F" stroke-width="1.2"/>
  <circle cx="200" cy="288.185" r="14.662499999999998" fill="none" stroke="#16150F" stroke-width="1.6"/><path d="M 200 305.78 V 382.025" fill="none" stroke="#16150F" stroke-width="1.6" stroke-linecap="round" stroke-linejoin="round"/><path d="M 172.63 315.55499999999995 Q 200 303.825 227.37 315.55499999999995" fill="none" stroke="#16150F" stroke-width="1.6" stroke-linecap="round" stroke-linejoin="round"/><path d="M 172.63 315.55499999999995 L 168.72 374.205" fill="none" stroke="#16150F" stroke-width="1.6" stroke-linecap="round" stroke-linejoin="round"/><path d="M 227.37 315.55499999999995 L 233.235 378.11499999999995" fill="none" stroke="#16150F" stroke-width="1.6" stroke-linecap="round" stroke-linejoin="round"/><path d="M 200 382.025 L 180.45 470" fill="none" stroke="#16150F" stroke-width="1.6" stroke-linecap="round" stroke-linejoin="round"/><path d="M 200 382.025 L 221.505 470" fill="none" stroke="#16150F" stroke-width="1.6" stroke-linecap="round" stroke-linejoin="round"/><circle cx="400" cy="311.9" r="12.75" fill="none" stroke="#16150F" stroke-width="1.6"/><path d="M 400 327.2 V 393.5" fill="none" stroke="#16150F" stroke-width="1.6" stroke-linecap="round" stroke-linejoin="round"/><path d="M 376.2 335.7 Q 400 325.5 423.8 335.7" fill="none" stroke="#16150F" stroke-width="1.6" stroke-linecap="round" stroke-linejoin="round"/><path d="M 376.2 335.7 L 372.8 386.7" fill="none" stroke="#16150F" stroke-width="1.6" stroke-linecap="round" stroke-linejoin="round"/><path d="M 423.8 335.7 L 428.9 390.1" fill="none" stroke="#16150F" stroke-width="1.6" stroke-linecap="round" stroke-linejoin="round"/><path d="M 400 393.5 L 383 470" fill="none" stroke="#16150F" stroke-width="1.6" stroke-linecap="round" stroke-linejoin="round"/><path d="M 400 393.5 L 418.7 470" fill="none" stroke="#16150F" stroke-width="1.6" stroke-linecap="round" stroke-linejoin="round"/><circle cx="600" cy="296.09000000000003" r="14.025000000000002" fill="none" stroke="#16150F" stroke-width="1.6"/><path d="M 600 312.92 V 385.85" fill="none" stroke="#16150F" stroke-width="1.6" stroke-linecap="round" stroke-linejoin="round"/><path d="M 573.8199999999999 322.27000000000004 Q 600 311.05 626.1800000000001 322.27000000000004" fill="none" stroke="#16150F" stroke-width="1.6" stroke-linecap="round" stroke-linejoin="round"/><path d="M 573.8199999999999 322.27000000000004 L 570.08 378.37" fill="none" stroke="#16150F" stroke-width="1.6" stroke-linecap="round" stroke-linejoin="round"/><path d="M 626.1800000000001 322.27000000000004 L 631.79 382.11" fill="none" stroke="#16150F" stroke-width="1.6" stroke-linecap="round" stroke-linejoin="round"/><path d="M 600 385.85 L 581.3 470" fill="none" stroke="#16150F" stroke-width="1.6" stroke-linecap="round" stroke-linejoin="round"/><path d="M 600 385.85 L 620.57 470" fill="none" stroke="#16150F" stroke-width="1.6" stroke-linecap="round" stroke-linejoin="round"/>
  <text x="24" y="574" font-family="ui-monospace, monospace" font-size="15" fill="#9C998D" letter-spacing="1.6">PEOPLE ELEVATION VOL 01</text>
  <text x="776" y="574" text-anchor="end" font-family="ui-monospace, monospace" font-size="15" fill="#9C998D" letter-spacing="1.6">PREVIEW PENDING</text>
</svg>
