<svg xmlns="http://www.w3.org/2000/svg" viewBox="0 0 960 960" width="960" height="960" role="img">
  <rect width="960" height="960" fill="#ffffff"/>
  <g transform="translate(150 470) scale(1.75 1.75)">
    <path d="M -6 -92 L -14 -42 L -20 -19 L -6 -15 L 2 -42 L 6 -70 L 6 -92 Z" fill="#ececec" stroke="#1a1a1a" stroke-width="1.7" vector-effect="non-scaling-stroke" stroke-linejoin="round" stroke-linecap="round"/>
    <path d="M -20 -19 L -22 -9 C -27 -8 -31 -5 -30 -2 C -30 0 -27 1 -23 0 L -6 -3 C -3 -4 -2 -6 -3 -9 L -5 -18 Z" fill="#ececec" stroke="#1a1a1a" stroke-width="1.7" vector-effect="non-scaling-stroke" stroke-linejoin="round" stroke-linecap="round"/>
    <path d="M 6 -92 L 10 -60 L 18 -31 L 20 -15 L 32 -17 L 30 -35 L 22 -64 L 20 -92 Z" fill="#ececec" stroke="#1a1a1a" stroke-width="1.7" vector-effect="non-scaling-stroke" stroke-linejoin="round" stroke-linecap="round"/>
    <path d="M 20 -15 L 19 -6 C 15 -4 13 0 15 3 C 17 5 20 5 24 4 L 40 -1 C 43 -2 43 -5 41 -7 L 33 -14 Z" fill="#ececec" stroke="#1a1a1a" stroke-width="1.7" vector-effect="non-scaling-stroke" stroke-linejoin="round" stroke-linecap="round"/>
    <path d="M -10 -142 C -18 -136 -22 -122 -21 -104 C -21 -98 -13 -98 -13 -104 C -13 -118 -10 -130 -5 -138 Z" fill="#ececec" stroke="#1a1a1a" stroke-width="1.7" vector-effect="non-scaling-stroke" stroke-linejoin="round" stroke-linecap="round"/>
    <path d="M -21 -104 C -24 -101 -24 -95 -21 -93 C -18 -91 -14 -93 -13 -97 C -13 -100 -13 -103 -13 -104 Z" fill="#ececec" stroke="#1a1a1a" stroke-width="1.7" vector-effect="non-scaling-stroke" stroke-linejoin="round" stroke-linecap="round"/>
    <path d="M -3 -153 L -3 -142 L 6 -142 L 6 -153 Z" fill="#ececec" stroke="#1a1a1a" stroke-width="1.7" vector-effect="non-scaling-stroke" stroke-linejoin="round" stroke-linecap="round"/>
    <path d="M -8 -146 C -16 -143 -19 -134 -19 -124 L -17 -90 L 17 -90 L 18 -124 C 18 -134 14 -143 6 -146 Z" fill="#ececec" stroke="#1a1a1a" stroke-width="1.7" vector-effect="non-scaling-stroke" stroke-linejoin="round" stroke-linecap="round"/>
    <path d="M 12 -142 C 20 -135 23 -120 21 -104 C 20 -98 13 -98 13 -104 C 13 -118 11 -130 7 -138 Z" fill="#ececec" stroke="#1a1a1a" stroke-width="1.7" vector-effect="non-scaling-stroke" stroke-linejoin="round" stroke-linecap="round"/>
    <path d="M 21 -104 C 24 -101 24 -95 21 -93 C 18 -91 14 -93 13 -97 C 13 -100 13 -103 13 -104 Z" fill="#ececec" stroke="#1a1a1a" stroke-width="1.7" vector-effect="non-scaling-stroke" stroke-linejoin="round" stroke-linecap="round"/>
    <path d="M -17 -95 L 17 -95" fill="none" stroke="#1a1a1a" stroke-width="1.05" vector-effect="non-scaling-stroke" stroke-linejoin="round" stroke-linecap="round"/>
    <path d="M 4 -142 L 6 -95" fill="none" stroke="#1a1a1a" stroke-width="1.05" vector-effect="non-scaling-stroke" stroke-linejoin="round" stroke-linecap="round"/>
    <path d="M 6 -131 L 15 -131 L 15 -122 L 6 -122" fill="none" stroke="#1a1a1a" stroke-width="1.05" vector-effect="non-scaling-stroke" stroke-linejoin="round" stroke-linecap="round"/>
    <path d="M -9 -166 C -11 -174 -9 -181 1 -181 C 11 -181 14 -174 13 -165 C 12 -158 7 -154 1 -154 C -5 -154 -9 -159 -9 -166 Z" fill="#ececec" stroke="#1a1a1a" stroke-width="1.7" vector-effect="non-scaling-stroke" stroke-linejoin="round" stroke-linecap="round"/>
    <path d="M -11 -174 C -11 -188 14 -188 15 -174 C 15 -172 14 -171 13 -171 L -9 -171 C -10 -171 -11 -172 -11 -174 Z" fill="#ececec" stroke="#1a1a1a" stroke-width="1.7" vector-effect="non-scaling-stroke" stroke-linejoin="round" stroke-linecap="round"/>
    <path d="M 13 -175 C 22 -176 30 -174 31 -171 C 31 -169 22 -167 13 -168 Z" fill="#ececec" stroke="#1a1a1a" stroke-width="1.7" vector-effect="non-scaling-stroke" stroke-linejoin="round" stroke-linecap="round"/>
    <path d="M -11 -179 L 14 -179" fill="none" stroke="#1a1a1a" stroke-width="1.05" vector-effect="non-scaling-stroke" stroke-linejoin="round" stroke-linecap="round"/>
  </g>
  <g transform="translate(420 470) scale(-1.75 1.75)">
    <path d="M -6 -92 L -14 -42 L -20 -19 L -6 -15 L 2 -42 L 6 -70 L 6 -92 Z" fill="#ececec" stroke="#1a1a1a" stroke-width="1.7" vector-effect="non-scaling-stroke" stroke-linejoin="round" stroke-linecap="round"/>
    <path d="M -20 -19 L -22 -9 C -27 -8 -31 -5 -30 -2 C -30 0 -27 1 -23 0 L -6 -3 C -3 -4 -2 -6 -3 -9 L -5 -18 Z" fill="#ececec" stroke="#1a1a1a" stroke-width="1.7" vector-effect="non-scaling-stroke" stroke-linejoin="round" stroke-linecap="round"/>
    <path d="M 6 -92 L 10 -60 L 18 -31 L 20 -15 L 32 -17 L 30 -35 L 22 -64 L 20 -92 Z" fill="#ececec" stroke="#1a1a1a" stroke-width="1.7" vector-effect="non-scaling-stroke" stroke-linejoin="round" stroke-linecap="round"/>
    <path d="M 20 -15 L 19 -6 C 15 -4 13 0 15 3 C 17 5 20 5 24 4 L 40 -1 C 43 -2 43 -5 41 -7 L 33 -14 Z" fill="#ececec" stroke="#1a1a1a" stroke-width="1.7" vector-effect="non-scaling-stroke" stroke-linejoin="round" stroke-linecap="round"/>
    <path d="M -10 -142 C -18 -136 -22 -122 -21 -104 C -21 -98 -13 -98 -13 -104 C -13 -118 -10 -130 -5 -138 Z" fill="#ececec" stroke="#1a1a1a" stroke-width="1.7" vector-effect="non-scaling-stroke" stroke-linejoin="round" stroke-linecap="round"/>
    <path d="M -21 -104 C -24 -101 -24 -95 -21 -93 C -18 -91 -14 -93 -13 -97 C -13 -100 -13 -103 -13 -104 Z" fill="#ececec" stroke="#1a1a1a" stroke-width="1.7" vector-effect="non-scaling-stroke" stroke-linejoin="round" stroke-linecap="round"/>
    <path d="M -3 -153 L -3 -142 L 6 -142 L 6 -153 Z" fill="#ececec" stroke="#1a1a1a" stroke-width="1.7" vector-effect="non-scaling-stroke" stroke-linejoin="round" stroke-linecap="round"/>
    <path d="M -8 -146 C -16 -143 -19 -134 -19 -124 L -17 -90 L 17 -90 L 18 -124 C 18 -134 14 -143 6 -146 Z" fill="#ececec" stroke="#1a1a1a" stroke-width="1.7" vector-effect="non-scaling-stroke" stroke-linejoin="round" stroke-linecap="round"/>
    <path d="M 12 -142 C 20 -135 23 -120 21 -104 C 20 -98 13 -98 13 -104 C 13 -118 11 -130 7 -138 Z" fill="#ececec" stroke="#1a1a1a" stroke-width="1.7" vector-effect="non-scaling-stroke" stroke-linejoin="round" stroke-linecap="round"/>
    <path d="M 21 -104 C 24 -101 24 -95 21 -93 C 18 -91 14 -93 13 -97 C 13 -100 13 -103 13 -104 Z" fill="#ececec" stroke="#1a1a1a" stroke-width="1.7" vector-effect="non-scaling-stroke" stroke-linejoin="round" stroke-linecap="round"/>
    <path d="M -17 -95 L 17 -95" fill="none" stroke="#1a1a1a" stroke-width="1.05" vector-effect="non-scaling-stroke" stroke-linejoin="round" stroke-linecap="round"/>
    <path d="M 4 -142 L 6 -95" fill="none" stroke="#1a1a1a" stroke-width="1.05" vector-effect="non-scaling-stroke" stroke-linejoin="round" stroke-linecap="round"/>
    <path d="M 6 -131 L 15 -131 L 15 -122 L 6 -122" fill="none" stroke="#1a1a1a" stroke-width="1.05" vector-effect="non-scaling-stroke" stroke-linejoin="round" stroke-linecap="round"/>
    <path d="M -9 -166 C -11 -174 -9 -181 1 -181 C 11 -181 14 -174 13 -165 C 12 -158 7 -154 1 -154 C -5 -154 -9 -159 -9 -166 Z" fill="#ececec" stroke="#1a1a1a" stroke-width="1.7" vector-effect="non-scaling-stroke" stroke-linejoin="round" stroke-linecap="round"/>
    <path d="M -11 -174 C -11 -188 14 -188 15 -174 C 15 -172 14 -171 13 -171 L -9 -171 C -10 -171 -11 -172 -11 -174 Z" fill="#ececec" stroke="#1a1a1a" stroke-width="1.7" vector-effect="non-scaling-stroke" stroke-linejoin="round" stroke-linecap="round"/>
    <path d="M 13 -175 C 22 -176 30 -174 31 -171 C 31 -169 22 -167 13 -168 Z" fill="#ececec" stroke="#1a1a1a" stroke-width="1.7" vector-effect="non-scaling-stroke" stroke-linejoin="round" stroke-linecap="round"/>
    <path d="M -11 -179 L 14 -179" fill="none" stroke="#1a1a1a" stroke-width="1.05" vector-effect="non-scaling-stroke" stroke-linejoin="round" stroke-linecap="round"/>
  </g>
  <g transform="translate(690 470) scale(1.75 1.75)">
    <path d="M -23 -92 L -25 -40 L -24 -17 L -8 -17 L -7 -40 L -2 -70 L -2 -92 Z" fill="#ececec" stroke="#1a1a1a" stroke-width="1.7" vector-effect="non-scaling-stroke" stroke-linejoin="round" stroke-linecap="round"/>
    <path d="M 2 -92 L 2 -70 L 7 -40 L 8 -17 L 24 -17 L 25 -40 L 23 -92 Z" fill="#ececec" stroke="#1a1a1a" stroke-width="1.7" vector-effect="non-scaling-stroke" stroke-linejoin="round" stroke-linecap="round"/>
    <path d="M -25 -17 L -26 -8 C -31 -7 -34 -5 -34 -2 C -34 0 -32 1 -29 1 L -10 1 C -6 1 -5 -1 -5 -4 L -6 -17 Z" fill="#ececec" stroke="#1a1a1a" stroke-width="1.7" vector-effect="non-scaling-stroke" stroke-linejoin="round" stroke-linecap="round"/>
    <path d="M 25 -17 L 26 -8 C 31 -7 34 -5 34 -2 C 34 0 32 1 29 1 L 10 1 C 6 1 5 -1 5 -4 L 6 -17 Z" fill="#ececec" stroke="#1a1a1a" stroke-width="1.7" vector-effect="non-scaling-stroke" stroke-linejoin="round" stroke-linecap="round"/>
    <path d="M -24 -141 C -30 -137 -33 -129 -33 -119 C -33 -107 -34 -95 -33 -87 C -32 -81 -25 -81 -25 -87 C -24 -97 -23 -109 -22 -119 C -21 -127 -20 -135 -18 -141 Z" fill="#ececec" stroke="#1a1a1a" stroke-width="1.7" vector-effect="non-scaling-stroke" stroke-linejoin="round" stroke-linecap="round"/>
    <path d="M 24 -141 C 30 -137 33 -129 33 -119 C 33 -107 34 -95 33 -87 C 32 -81 25 -81 25 -87 C 24 -97 23 -109 22 -119 C 21 -127 20 -135 18 -141 Z" fill="#ececec" stroke="#1a1a1a" stroke-width="1.7" vector-effect="non-scaling-stroke" stroke-linejoin="round" stroke-linecap="round"/>
    <path d="M -33 -87 C -35 -84 -35 -79 -33 -77 C -30 -75 -26 -76 -25 -79 C -24 -83 -25 -86 -25 -87 Z" fill="#ececec" stroke="#1a1a1a" stroke-width="1.7" vector-effect="non-scaling-stroke" stroke-linejoin="round" stroke-linecap="round"/>
    <path d="M 33 -87 C 35 -84 35 -79 33 -77 C 30 -75 26 -76 25 -79 C 24 -83 25 -86 25 -87 Z" fill="#ececec" stroke="#1a1a1a" stroke-width="1.7" vector-effect="non-scaling-stroke" stroke-linejoin="round" stroke-linecap="round"/>
    <path d="M -5 -151 L -5 -140 L 5 -140 L 5 -151 Z" fill="#ececec" stroke="#1a1a1a" stroke-width="1.7" vector-effect="non-scaling-stroke" stroke-linejoin="round" stroke-linecap="round"/>
    <path d="M -13 -144 C -21 -142 -25 -135 -25 -126 L -24 -90 L 24 -90 L 25 -126 C 25 -135 21 -142 13 -144 Z" fill="#ececec" stroke="#1a1a1a" stroke-width="1.7" vector-effect="non-scaling-stroke" stroke-linejoin="round" stroke-linecap="round"/>
    <path d="M -25 -136 C -31 -132 -33 -125 -33 -117 L -22 -117 L -21 -134 Z" fill="#ececec" stroke="#1a1a1a" stroke-width="1.7" vector-effect="non-scaling-stroke" stroke-linejoin="round" stroke-linecap="round"/>
    <path d="M 25 -136 C 31 -132 33 -125 33 -117 L 22 -117 L 21 -134 Z" fill="#ececec" stroke="#1a1a1a" stroke-width="1.7" vector-effect="non-scaling-stroke" stroke-linejoin="round" stroke-linecap="round"/>
    <path d="M -13 -144 L -5 -135 L 0 -139 L 5 -135 L 13 -144" fill="none" stroke="#1a1a1a" stroke-width="1.05" vector-effect="non-scaling-stroke" stroke-linejoin="round" stroke-linecap="round"/>
    <path d="M 0 -139 L 0 -92" fill="none" stroke="#1a1a1a" stroke-width="1.05" vector-effect="non-scaling-stroke" stroke-linejoin="round" stroke-linecap="round"/>
    <path d="M -18 -131 L -8 -131 L -8 -122 L -18 -122 Z" fill="none" stroke="#1a1a1a" stroke-width="1.05" vector-effect="non-scaling-stroke" stroke-linejoin="round" stroke-linecap="round"/>
    <path d="M 8 -131 L 18 -131 L 18 -122 L 8 -122 Z" fill="none" stroke="#1a1a1a" stroke-width="1.05" vector-effect="non-scaling-stroke" stroke-linejoin="round" stroke-linecap="round"/>
    <path d="M -24 -95 L 24 -95" fill="none" stroke="#1a1a1a" stroke-width="1.05" vector-effect="non-scaling-stroke" stroke-linejoin="round" stroke-linecap="round"/>
    <path d="M -10 -164 C -12 -172 -11 -179 0 -179 C 11 -179 12 -172 10 -164 C 10 -158 5 -154 0 -154 C -5 -154 -10 -158 -10 -164 Z" fill="#ececec" stroke="#1a1a1a" stroke-width="1.7" vector-effect="non-scaling-stroke" stroke-linejoin="round" stroke-linecap="round"/>
    <path d="M -12 -173 C -12 -186 12 -186 12 -173 C 12 -171 11 -170 10 -170 L -10 -170 C -11 -170 -12 -171 -12 -173 Z" fill="#ececec" stroke="#1a1a1a" stroke-width="1.7" vector-effect="non-scaling-stroke" stroke-linejoin="round" stroke-linecap="round"/>
    <path d="M -13 -172 C -14 -166 -9 -163 0 -163 C 9 -163 14 -166 13 -172 Z" fill="#ececec" stroke="#1a1a1a" stroke-width="1.7" vector-effect="non-scaling-stroke" stroke-linejoin="round" stroke-linecap="round"/>
    <path d="M -12 -178 L 12 -178" fill="none" stroke="#1a1a1a" stroke-width="1.05" vector-effect="non-scaling-stroke" stroke-linejoin="round" stroke-linecap="round"/>
  </g>
  <g transform="translate(150 910) scale(1.75 1.75)">
    <path d="M -23 -92 L -25 -40 L -24 -17 L -8 -17 L -7 -40 L -2 -70 L -2 -92 Z" fill="#ececec" stroke="#1a1a1a" stroke-width="1.7" vector-effect="non-scaling-stroke" stroke-linejoin="round" stroke-linecap="round"/>
    <path d="M 2 -92 L 2 -70 L 7 -40 L 8 -17 L 24 -17 L 25 -40 L 23 -92 Z" fill="#ececec" stroke="#1a1a1a" stroke-width="1.7" vector-effect="non-scaling-stroke" stroke-linejoin="round" stroke-linecap="round"/>
    <path d="M -25 -17 L -26 -8 C -31 -7 -34 -5 -34 -2 C -34 0 -32 1 -29 1 L -10 1 C -6 1 -5 -1 -5 -4 L -6 -17 Z" fill="#ececec" stroke="#1a1a1a" stroke-width="1.7" vector-effect="non-scaling-stroke" stroke-linejoin="round" stroke-linecap="round"/>
    <path d="M 25 -17 L 26 -8 C 31 -7 34 -5 34 -2 C 34 0 32 1 29 1 L 10 1 C 6 1 5 -1 5 -4 L 6 -17 Z" fill="#ececec" stroke="#1a1a1a" stroke-width="1.7" vector-effect="non-scaling-stroke" stroke-linejoin="round" stroke-linecap="round"/>
    <path d="M -24 -141 C -30 -137 -33 -129 -33 -119 C -33 -107 -34 -95 -33 -87 C -32 -81 -25 -81 -25 -87 C -24 -97 -23 -109 -22 -119 C -21 -127 -20 -135 -18 -141 Z" fill="#ececec" stroke="#1a1a1a" stroke-width="1.7" vector-effect="non-scaling-stroke" stroke-linejoin="round" stroke-linecap="round"/>
    <path d="M 24 -141 C 30 -137 33 -129 33 -119 C 33 -107 34 -95 33 -87 C 32 -81 25 -81 25 -87 C 24 -97 23 -109 22 -119 C 21 -127 20 -135 18 -141 Z" fill="#ececec" stroke="#1a1a1a" stroke-width="1.7" vector-effect="non-scaling-stroke" stroke-linejoin="round" stroke-linecap="round"/>
    <path d="M -33 -87 C -35 -84 -35 -79 -33 -77 C -30 -75 -26 -76 -25 -79 C -24 -83 -25 -86 -25 -87 Z" fill="#ececec" stroke="#1a1a1a" stroke-width="1.7" vector-effect="non-scaling-stroke" stroke-linejoin="round" stroke-linecap="round"/>
    <path d="M 33 -87 C 35 -84 35 -79 33 -77 C 30 -75 26 -76 25 -79 C 24 -83 25 -86 25 -87 Z" fill="#ececec" stroke="#1a1a1a" stroke-width="1.7" vector-effect="non-scaling-stroke" stroke-linejoin="round" stroke-linecap="round"/>
    <path d="M -5 -151 L -5 -140 L 5 -140 L 5 -151 Z" fill="#ececec" stroke="#1a1a1a" stroke-width="1.7" vector-effect="non-scaling-stroke" stroke-linejoin="round" stroke-linecap="round"/>
    <path d="M -13 -144 C -21 -142 -25 -135 -25 -126 L -24 -90 L 24 -90 L 25 -126 C 25 -135 21 -142 13 -144 Z" fill="#ececec" stroke="#1a1a1a" stroke-width="1.7" vector-effect="non-scaling-stroke" stroke-linejoin="round" stroke-linecap="round"/>
    <path d="M -25 -136 C -31 -132 -33 -125 -33 -117 L -22 -117 L -21 -134 Z" fill="#ececec" stroke="#1a1a1a" stroke-width="1.7" vector-effect="non-scaling-stroke" stroke-linejoin="round" stroke-linecap="round"/>
    <path d="M 25 -136 C 31 -132 33 -125 33 -117 L 22 -117 L 21 -134 Z" fill="#ececec" stroke="#1a1a1a" stroke-width="1.7" vector-effect="non-scaling-stroke" stroke-linejoin="round" stroke-linecap="round"/>
    <path d="M -13 -144 C -7 -139 7 -139 13 -144" fill="none" stroke="#1a1a1a" stroke-width="1.05" vector-effect="non-scaling-stroke" stroke-linejoin="round" stroke-linecap="round"/>
    <path d="M -20 -129 C -10 -125 10 -125 20 -129" fill="none" stroke="#1a1a1a" stroke-width="1.05" vector-effect="non-scaling-stroke" stroke-linejoin="round" stroke-linecap="round"/>
    <path d="M -24 -95 L 24 -95" fill="none" stroke="#1a1a1a" stroke-width="1.05" vector-effect="non-scaling-stroke" stroke-linejoin="round" stroke-linecap="round"/>
    <path d="M -10 -164 C -12 -172 -11 -179 0 -179 C 11 -179 12 -172 10 -164 C 10 -158 5 -154 0 -154 C -5 -154 -10 -158 -10 -164 Z" fill="#ececec" stroke="#1a1a1a" stroke-width="1.7" vector-effect="non-scaling-stroke" stroke-linejoin="round" stroke-linecap="round"/>
    <path d="M -12 -173 C -12 -186 12 -186 12 -173 C 12 -171 11 -170 10 -170 L -10 -170 C -11 -170 -12 -171 -12 -173 Z" fill="#ececec" stroke="#1a1a1a" stroke-width="1.7" vector-effect="non-scaling-stroke" stroke-linejoin="round" stroke-linecap="round"/>
    <path d="M -7 -171 L 7 -171" fill="none" stroke="#1a1a1a" stroke-width="1.05" vector-effect="non-scaling-stroke" stroke-linejoin="round" stroke-linecap="round"/>
    <path d="M -12 -178 L 12 -178" fill="none" stroke="#1a1a1a" stroke-width="1.05" vector-effect="non-scaling-stroke" stroke-linejoin="round" stroke-linecap="round"/>
  </g>
  <g transform="translate(420 890) scale(1.75 1.75)">
    <path d="M -13 -32 L -16 -12 L -13 -3 L -5 -5 L -5 -15 L -1 -28 Z" fill="#ececec" stroke="#1a1a1a" stroke-width="1.7" vector-effect="non-scaling-stroke" stroke-linejoin="round" stroke-linecap="round"/>
    <path d="M 4 -32 L 5 -15 L 9 -3 L 17 -6 L 14 -16 L 12 -30 Z" fill="#ececec" stroke="#1a1a1a" stroke-width="1.7" vector-effect="non-scaling-stroke" stroke-linejoin="round" stroke-linecap="round"/>
    <path d="M -16 -8 L -18 -3 C -22 -2 -24 1 -22 3 C -20 5 -17 5 -14 4 L -6 1 C -4 0 -3 -3 -4 -5 Z" fill="#ececec" stroke="#1a1a1a" stroke-width="1.7" vector-effect="non-scaling-stroke" stroke-linejoin="round" stroke-linecap="round"/>
    <path d="M 9 -6 L 7 -1 C 4 1 3 4 5 6 C 7 8 11 7 13 6 L 21 2 C 23 1 23 -2 21 -3 Z" fill="#ececec" stroke="#1a1a1a" stroke-width="1.7" vector-effect="non-scaling-stroke" stroke-linejoin="round" stroke-linecap="round"/>
    <path d="M -20 -76 C -28 -70 -34 -56 -35 -42 C -35 -37 -28 -36 -28 -41 C -28 -52 -25 -63 -19 -70 Z" fill="#ececec" stroke="#1a1a1a" stroke-width="1.7" vector-effect="non-scaling-stroke" stroke-linejoin="round" stroke-linecap="round"/>
    <path d="M 20 -76 C 28 -70 34 -56 35 -42 C 35 -37 28 -36 28 -41 C 28 -52 25 -63 19 -70 Z" fill="#ececec" stroke="#1a1a1a" stroke-width="1.7" vector-effect="non-scaling-stroke" stroke-linejoin="round" stroke-linecap="round"/>
    <path d="M -35 -42 C -38 -40 -38 -34 -35 -32 C -32 -31 -28 -33 -28 -37 C -28 -39 -28 -41 -28 -41 Z" fill="#ececec" stroke="#1a1a1a" stroke-width="1.7" vector-effect="non-scaling-stroke" stroke-linejoin="round" stroke-linecap="round"/>
    <path d="M 35 -42 C 38 -40 38 -34 35 -32 C 32 -31 28 -33 28 -37 C 28 -39 28 -41 28 -41 Z" fill="#ececec" stroke="#1a1a1a" stroke-width="1.7" vector-effect="non-scaling-stroke" stroke-linejoin="round" stroke-linecap="round"/>
    <path d="M 0 -84 C -13 -84 -23 -78 -26 -68 C -29 -57 -28 -44 -25 -33 L 25 -33 C 28 -44 29 -57 26 -68 C 23 -78 13 -84 0 -84 Z" fill="#ececec" stroke="#1a1a1a" stroke-width="1.7" vector-effect="non-scaling-stroke" stroke-linejoin="round" stroke-linecap="round"/>
    <path d="M -24 -74 C -30 -70 -33 -63 -33 -55 L -24 -56 L -21 -73 Z" fill="#ececec" stroke="#1a1a1a" stroke-width="1.7" vector-effect="non-scaling-stroke" stroke-linejoin="round" stroke-linecap="round"/>
    <path d="M 24 -74 C 30 -70 33 -63 33 -55 L 24 -56 L 21 -73 Z" fill="#ececec" stroke="#1a1a1a" stroke-width="1.7" vector-effect="non-scaling-stroke" stroke-linejoin="round" stroke-linecap="round"/>
    <path d="M -26 -38 L 26 -38" fill="none" stroke="#1a1a1a" stroke-width="1.05" vector-effect="non-scaling-stroke" stroke-linejoin="round" stroke-linecap="round"/>
    <path d="M 0 -80 L 0 -35" fill="none" stroke="#1a1a1a" stroke-width="1.05" vector-effect="non-scaling-stroke" stroke-linejoin="round" stroke-linecap="round"/>
    <path d="M -15 -89 C -15 -102 15 -102 15 -89 C 15 -79 -15 -79 -15 -89 Z" fill="#ececec" stroke="#1a1a1a" stroke-width="1.7" vector-effect="non-scaling-stroke" stroke-linejoin="round" stroke-linecap="round"/>
    <path d="M -11 -82 C -10 -72 10 -72 11 -82 C 11 -85 -11 -85 -11 -82 Z" fill="#ececec" stroke="#1a1a1a" stroke-width="1.7" vector-effect="non-scaling-stroke" stroke-linejoin="round" stroke-linecap="round"/>
    <path d="M 0 -101 L 0 -80" fill="none" stroke="#1a1a1a" stroke-width="1.05" vector-effect="non-scaling-stroke" stroke-linejoin="round" stroke-linecap="round"/>
    <path d="M -13 -95 C -5 -91 5 -91 13 -95" fill="none" stroke="#1a1a1a" stroke-width="1.05" vector-effect="non-scaling-stroke" stroke-linejoin="round" stroke-linecap="round"/>
  </g>
  <g transform="translate(690 890) scale(-1.75 1.75)">
    <path d="M -13 -32 L -16 -12 L -13 -3 L -5 -5 L -5 -15 L -1 -28 Z" fill="#ececec" stroke="#1a1a1a" stroke-width="1.7" vector-effect="non-scaling-stroke" stroke-linejoin="round" stroke-linecap="round"/>
    <path d="M 4 -32 L 5 -15 L 9 -3 L 17 -6 L 14 -16 L 12 -30 Z" fill="#ececec" stroke="#1a1a1a" stroke-width="1.7" vector-effect="non-scaling-stroke" stroke-linejoin="round" stroke-linecap="round"/>
    <path d="M -16 -8 L -18 -3 C -22 -2 -24 1 -22 3 C -20 5 -17 5 -14 4 L -6 1 C -4 0 -3 -3 -4 -5 Z" fill="#ececec" stroke="#1a1a1a" stroke-width="1.7" vector-effect="non-scaling-stroke" stroke-linejoin="round" stroke-linecap="round"/>
    <path d="M 9 -6 L 7 -1 C 4 1 3 4 5 6 C 7 8 11 7 13 6 L 21 2 C 23 1 23 -2 21 -3 Z" fill="#ececec" stroke="#1a1a1a" stroke-width="1.7" vector-effect="non-scaling-stroke" stroke-linejoin="round" stroke-linecap="round"/>
    <path d="M -20 -76 C -28 -70 -34 -56 -35 -42 C -35 -37 -28 -36 -28 -41 C -28 -52 -25 -63 -19 -70 Z" fill="#ececec" stroke="#1a1a1a" stroke-width="1.7" vector-effect="non-scaling-stroke" stroke-linejoin="round" stroke-linecap="round"/>
    <path d="M 20 -76 C 28 -70 34 -56 35 -42 C 35 -37 28 -36 28 -41 C 28 -52 25 -63 19 -70 Z" fill="#ececec" stroke="#1a1a1a" stroke-width="1.7" vector-effect="non-scaling-stroke" stroke-linejoin="round" stroke-linecap="round"/>
    <path d="M -35 -42 C -38 -40 -38 -34 -35 -32 C -32 -31 -28 -33 -28 -37 C -28 -39 -28 -41 -28 -41 Z" fill="#ececec" stroke="#1a1a1a" stroke-width="1.7" vector-effect="non-scaling-stroke" stroke-linejoin="round" stroke-linecap="round"/>
    <path d="M 35 -42 C 38 -40 38 -34 35 -32 C 32 -31 28 -33 28 -37 C 28 -39 28 -41 28 -41 Z" fill="#ececec" stroke="#1a1a1a" stroke-width="1.7" vector-effect="non-scaling-stroke" stroke-linejoin="round" stroke-linecap="round"/>
    <path d="M 0 -84 C -13 -84 -23 -78 -26 -68 C -29 -57 -28 -44 -25 -33 L 25 -33 C 28 -44 29 -57 26 -68 C 23 -78 13 -84 0 -84 Z" fill="#ececec" stroke="#1a1a1a" stroke-width="1.7" vector-effect="non-scaling-stroke" stroke-linejoin="round" stroke-linecap="round"/>
    <path d="M -24 -74 C -30 -70 -33 -63 -33 -55 L -24 -56 L -21 -73 Z" fill="#ececec" stroke="#1a1a1a" stroke-width="1.7" vector-effect="non-scaling-stroke" stroke-linejoin="round" stroke-linecap="round"/>
    <path d="M 24 -74 C 30 -70 33 -63 33 -55 L 24 -56 L 21 -73 Z" fill="#ececec" stroke="#1a1a1a" stroke-width="1.7" vector-effect="non-scaling-stroke" stroke-linejoin="round" stroke-linecap="round"/>
    <path d="M -26 -38 L 26 -38" fill="none" stroke="#1a1a1a" stroke-width="1.05" vector-effect="non-scaling-stroke" stroke-linejoin="round" stroke-linecap="round"/>
    <path d="M 0 -80 L 0 -35" fill="none" stroke="#1a1a1a" stroke-width="1.05" vector-effect="non-scaling-stroke" stroke-linejoin="round" stroke-linecap="round"/>
    <path d="M -15 -89 C -15 -102 15 -102 15 -89 C 15 -79 -15 -79 -15 -89 Z" fill="#ececec" stroke="#1a1a1a" stroke-width="1.7" vector-effect="non-scaling-stroke" stroke-linejoin="round" stroke-linecap="round"/>
    <path d="M -11 -82 C -10 -72 10 -72 11 -82 C 11 -85 -11 -85 -11 -82 Z" fill="#ececec" stroke="#1a1a1a" stroke-width="1.7" vector-effect="non-scaling-stroke" stroke-linejoin="round" stroke-linecap="round"/>
    <path d="M 0 -101 L 0 -80" fill="none" stroke="#1a1a1a" stroke-width="1.05" vector-effect="non-scaling-stroke" stroke-linejoin="round" stroke-linecap="round"/>
    <path d="M -13 -95 C -5 -91 5 -91 13 -95" fill="none" stroke="#1a1a1a" stroke-width="1.05" vector-effect="non-scaling-stroke" stroke-linejoin="round" stroke-linecap="round"/>
  </g>
  <line x1="0" y1="957" x2="960" y2="957" stroke="#1a1a1a" stroke-width="3"/>
</svg>
