<svg xmlns="http://www.w3.org/2000/svg" viewBox="0 0 800 600" width="800" height="600" role="img">
  <rect width="800" height="600" fill="#F1F0EA"/>
  <line x1="40" y1="0" x2="40" y2="600" stroke="#D8D6CD" stroke-width="1"/><line x1="80" y1="0" x2="80" y2="600" stroke="#D8D6CD" stroke-width="1"/><line x1="120" y1="0" x2="120" y2="600" stroke="#D8D6CD" stroke-width="1"/><line x1="160" y1="0" x2="160" y2="600" stroke="#D8D6CD" stroke-width="1"/><line x1="200" y1="0" x2="200" y2="600" stroke="#D8D6CD" stroke-width="1"/><line x1="240" y1="0" x2="240" y2="600" stroke="#D8D6CD" stroke-width="1"/><line x1="280" y1="0" x2="280" y2="600" stroke="#D8D6CD" stroke-width="1"/><line x1="320" y1="0" x2="320" y2="600" stroke="#D8D6CD" stroke-width="1"/><line x1="360" y1="0" x2="360" y2="600" stroke="#D8D6CD" stroke-width="1"/><line x1="400" y1="0" x2="400" y2="600" stroke="#D8D6CD" stroke-width="1"/><line x1="440" y1="0" x2="440" y2="600" stroke="#D8D6CD" stroke-width="1"/><line x1="480" y1="0" x2="480" y2="600" stroke="#D8D6CD" stroke-width="1"/><line x1="520" y1="0" x2="520" y2="600" stroke="#D8D6CD" stroke-width="1"/><line x1="560" y1="0" x2="560" y2="600" stroke="#D8D6CD" stroke-width="1"/><line x1="600" y1="0" x2="600" y2="600" stroke="#D8D6CD" stroke-width="1"/><line x1="640" y1="0" x2="640" y2="600" stroke="#D8D6CD" stroke-width="1"/><line x1="680" y1="0" x2="680" y2="600" stroke="#D8D6CD" stroke-width="1"/><line x1="720" y1="0" x2="720" y2="600" stroke="#D8D6CD" stroke-width="1"/><line x1="760" y1="0" x2="760" y2="600" stroke="#D8D6CD" stroke-width="1"/><line x1="0" y1="40" x2="800" y2="40" stroke="#D8D6CD" stroke-width="1"/><line x1="0" y1="80" x2="800" y2="80" stroke="#D8D6CD" stroke-width="1"/><line x1="0" y1="120" x2="800" y2="120" stroke="#D8D6CD" stroke-width="1"/><line x1="0" y1="160" x2="800" y2="160" stroke="#D8D6CD" stroke-width="1"/><line x1="0" y1="200" x2="800" y2="200" stroke="#D8D6CD" stroke-width="1"/><line x1="0" y1="240" x2="800" y2="240" stroke="#D8D6CD" stroke-width="1"/><line x1="0" y1="280" x2="800" y2="280" stroke="#D8D6CD" stroke-width="1"/><line x1="0" y1="320" x2="800" y2="320" stroke="#D8D6CD" stroke-width="1"/><line x1="0" y1="360" x2="800" y2="360" stroke="#D8D6CD" stroke-width="1"/><line x1="0" y1="400" x2="800" y2="400" stroke="#D8D6CD" stroke-width="1"/><line x1="0" y1="440" x2="800" y2="440" stroke="#D8D6CD" stroke-width="1"/><line x1="0" y1="480" x2="800" y2="480" stroke="#D8D6CD" stroke-width="1"/><line x1="0" y1="520" x2="800" y2="520" stroke="#D8D6CD" stroke-width="1"/><line x1="0" y1="560" x2="800" y2="560" stroke="#D8D6CD" stroke-width="1"/>
  <line x1="0" y1="470" x2="800" y2="470" stroke="#16150F" stroke-width="1.2"/>
  <circle cx="160" cy="311.9" r="12.75" fill="none" stroke="#16150F" stroke-width="1.6"/><path d="M 160 327.2 V 393.5" fill="none" stroke="#16150F" stroke-width="1.6" stroke-linecap="round" stroke-linejoin="round"/><path d="M 136.2 335.7 Q 160 325.5 183.8 335.7" fill="none" stroke="#16150F" stroke-width="1.6" stroke-linecap="round" stroke-linejoin="round"/><path d="M 136.2 335.7 L 132.8 386.7" fill="none" stroke="#16150F" stroke-width="1.6" stroke-linecap="round" stroke-linejoin="round"/><path d="M 183.8 335.7 L 188.9 390.1" fill="none" stroke="#16150F" stroke-width="1.6" stroke-linecap="round" stroke-linejoin="round"/><path d="M 160 393.5 L 143 470" fill="none" stroke="#16150F" stroke-width="1.6" stroke-linecap="round" stroke-linejoin="round"/><path d="M 160 393.5 L 178.7 470" fill="none" stroke="#16150F" stroke-width="1.6" stroke-linecap="round" stroke-linejoin="round"/><circle cx="320" cy="334.034" r="10.964999999999998" fill="none" stroke="#16150F" stroke-width="1.6"/><path d="M 320 347.192 V 404.21000000000004" fill="none" stroke="#16150F" stroke-width="1.6" stroke-linecap="round" stroke-linejoin="round"/><path d="M 299.532 354.502 Q 320 345.73 340.468 354.502" fill="none" stroke="#16150F" stroke-width="1.6" stroke-linecap="round" stroke-linejoin="round"/><path d="M 299.532 354.502 L 296.608 398.362" fill="none" stroke="#16150F" stroke-width="1.6" stroke-linecap="round" stroke-linejoin="round"/><path d="M 340.468 354.502 L 344.854 401.28600000000006" fill="none" stroke="#16150F" stroke-width="1.6" stroke-linecap="round" stroke-linejoin="round"/><path d="M 320 404.21000000000004 L 305.38 470" fill="none" stroke="#16150F" stroke-width="1.6" stroke-linecap="round" stroke-linejoin="round"/><path d="M 320 404.21000000000004 L 336.082 470" fill="none" stroke="#16150F" stroke-width="1.6" stroke-linecap="round" stroke-linejoin="round"/><circle cx="480" cy="302.41399999999993" r="13.515" fill="none" stroke="#16150F" stroke-width="1.6"/><path d="M 480 318.63199999999995 V 388.90999999999997" fill="none" stroke="#16150F" stroke-width="1.6" stroke-linecap="round" stroke-linejoin="round"/><path d="M 454.772 327.64199999999994 Q 480 316.8299999999999 505.228 327.64199999999994" fill="none" stroke="#16150F" stroke-width="1.6" stroke-linecap="round" stroke-linejoin="round"/><path d="M 454.772 327.64199999999994 L 451.168 381.70199999999994" fill="none" stroke="#16150F" stroke-width="1.6" stroke-linecap="round" stroke-linejoin="round"/><path d="M 505.228 327.64199999999994 L 510.634 385.306" fill="none" stroke="#16150F" stroke-width="1.6" stroke-linecap="round" stroke-linejoin="round"/><path d="M 480 388.90999999999997 L 461.98 470" fill="none" stroke="#16150F" stroke-width="1.6" stroke-linecap="round" stroke-linejoin="round"/><path d="M 480 388.90999999999997 L 499.822 470" fill="none" stroke="#16150F" stroke-width="1.6" stroke-linecap="round" stroke-linejoin="round"/><circle cx="640" cy="324.548" r="11.73" fill="none" stroke="#16150F" stroke-width="1.6"/><path d="M 640 338.624 V 399.62" fill="none" stroke="#16150F" stroke-width="1.6" stroke-linecap="round" stroke-linejoin="round"/><path d="M 618.104 346.444 Q 640 337.06 661.896 346.444" fill="none" stroke="#16150F" stroke-width="1.6" stroke-linecap="round" stroke-linejoin="round"/><path d="M 618.104 346.444 L 614.976 393.36400000000003" fill="none" stroke="#16150F" stroke-width="1.6" stroke-linecap="round" stroke-linejoin="round"/><path d="M 661.896 346.444 L 666.588 396.492" fill="none" stroke="#16150F" stroke-width="1.6" stroke-linecap="round" stroke-linejoin="round"/><path d="M 640 399.62 L 624.36 470" fill="none" stroke="#16150F" stroke-width="1.6" stroke-linecap="round" stroke-linejoin="round"/><path d="M 640 399.62 L 657.204 470" fill="none" stroke="#16150F" stroke-width="1.6" stroke-linecap="round" stroke-linejoin="round"/>
  <text x="24" y="574" font-family="ui-monospace, monospace" font-size="15" fill="#9C998D" letter-spacing="1.6">PEOPLE PLAN VOL 01</text>
  <text x="776" y="574" text-anchor="end" font-family="ui-monospace, monospace" font-size="15" fill="#9C998D" letter-spacing="1.6">PREVIEW PENDING</text>
</svg>
