<svg xmlns="http://www.w3.org/2000/svg" viewBox="0 0 960 960" width="960" height="960" role="img">
  <rect width="960" height="960" fill="#ffffff"/>
  <g transform="translate(300 440) scale(2.6 2.6)">
    <path d="M -9 -22 L -11 -8 L -8 -1 L -2 -2 L -2 -10 L 0 -20 Z" fill="#ececec" stroke="#1a1a1a" stroke-width="1.7" vector-effect="non-scaling-stroke" stroke-linejoin="round" stroke-linecap="round"/>
    <path d="M 3 -22 L 4 -10 L 6 -2 L 12 -4 L 10 -12 L 9 -22 Z" fill="#ececec" stroke="#1a1a1a" stroke-width="1.7" vector-effect="non-scaling-stroke" stroke-linejoin="round" stroke-linecap="round"/>
    <path d="M -11 -4 C -15 -3 -16 1 -14 3 C -12 4 -9 4 -7 3 L -1 1 C 1 0 1 -2 0 -3 Z" fill="#ececec" stroke="#1a1a1a" stroke-width="1.7" vector-effect="non-scaling-stroke" stroke-linejoin="round" stroke-linecap="round"/>
    <path d="M 6 -3 C 3 -1 2 3 4 4 C 6 6 9 5 11 4 L 16 1 C 18 0 17 -3 16 -4 Z" fill="#ececec" stroke="#1a1a1a" stroke-width="1.7" vector-effect="non-scaling-stroke" stroke-linejoin="round" stroke-linecap="round"/>
    <path d="M -20 -50 C -27 -56 -34 -62 -38 -67 C -40 -70 -36 -74 -33 -71 C -28 -66 -21 -60 -16 -56 Z" fill="#ececec" stroke="#1a1a1a" stroke-width="1.7" vector-effect="non-scaling-stroke" stroke-linejoin="round" stroke-linecap="round"/>
    <path d="M -38 -67 C -41 -70 -45 -70 -46 -68 C -47 -66 -45 -64 -42 -63 C -39 -62 -37 -64 -37 -66 Z" fill="#ececec" stroke="#1a1a1a" stroke-width="1.7" vector-effect="non-scaling-stroke" stroke-linejoin="round" stroke-linecap="round"/>
    <path d="M 18 -50 C 21 -44 22 -36 21 -30 C 20 -27 16 -27 16 -30 C 16 -36 16 -44 15 -50 Z" fill="#ececec" stroke="#1a1a1a" stroke-width="1.7" vector-effect="non-scaling-stroke" stroke-linejoin="round" stroke-linecap="round"/>
    <path d="M 21 -30 C 23 -28 23 -25 21 -24 C 19 -22 16 -23 16 -26 C 16 -28 16 -29 16 -30 Z" fill="#ececec" stroke="#1a1a1a" stroke-width="1.7" vector-effect="non-scaling-stroke" stroke-linejoin="round" stroke-linecap="round"/>
    <path d="M -12 -60 C -20 -56 -23 -50 -22 -42 L -18 -22 L 18 -22 L 22 -42 C 23 -50 20 -56 12 -60 C 7 -62 -7 -62 -12 -60 Z" fill="#ececec" stroke="#1a1a1a" stroke-width="1.7" vector-effect="non-scaling-stroke" stroke-linejoin="round" stroke-linecap="round"/>
    <path d="M -18 -26 L 18 -26" fill="none" stroke="#1a1a1a" stroke-width="1.05" vector-effect="non-scaling-stroke" stroke-linejoin="round" stroke-linecap="round"/>
    <path d="M -15 -72 C -15 -84 15 -84 15 -72 C 15 -62 -15 -62 -15 -72 Z" fill="#ececec" stroke="#1a1a1a" stroke-width="1.7" vector-effect="non-scaling-stroke" stroke-linejoin="round" stroke-linecap="round"/>
    <path d="M -18 -72 C -18 -87 18 -87 18 -72 C 18 -68 16 -65 13 -64 C 14 -70 13 -76 10 -79 C 4 -83 -4 -83 -10 -79 C -13 -76 -14 -70 -13 -64 C -16 -65 -18 -68 -18 -72 Z" fill="#ececec" stroke="#1a1a1a" stroke-width="1.7" vector-effect="non-scaling-stroke" stroke-linejoin="round" stroke-linecap="round"/>
    <path d="M 15 -76 C 22 -78 27 -73 25 -67 C 24 -63 20 -62 18 -64 C 19 -68 18 -73 15 -74 Z" fill="#ececec" stroke="#1a1a1a" stroke-width="1.7" vector-effect="non-scaling-stroke" stroke-linejoin="round" stroke-linecap="round"/>
  </g>
  <g transform="translate(690 450) scale(2.5 2.5)">
    <path d="M -4 -52 L -8 -24 L -11 -8 L -2 -6 L 2 -24 L 4 -40 L 4 -52 Z" fill="#ececec" stroke="#1a1a1a" stroke-width="1.7" vector-effect="non-scaling-stroke" stroke-linejoin="round" stroke-linecap="round"/>
    <path d="M -12 -9 C -16 -7 -18 -3 -16 0 C -15 2 -12 2 -9 1 L -1 -1 C 1 -2 1 -4 0 -6 L -2 -9 Z" fill="#ececec" stroke="#1a1a1a" stroke-width="1.7" vector-effect="non-scaling-stroke" stroke-linejoin="round" stroke-linecap="round"/>
    <path d="M 4 -52 L 6 -34 L 10 -16 L 11 -6 L 19 -8 L 18 -20 L 13 -38 L 12 -52 Z" fill="#ececec" stroke="#1a1a1a" stroke-width="1.7" vector-effect="non-scaling-stroke" stroke-linejoin="round" stroke-linecap="round"/>
    <path d="M 11 -8 C 8 -6 7 -2 9 0 C 11 2 14 2 16 1 L 24 -3 C 26 -4 25 -7 24 -8 L 21 -11 Z" fill="#ececec" stroke="#1a1a1a" stroke-width="1.7" vector-effect="non-scaling-stroke" stroke-linejoin="round" stroke-linecap="round"/>
    <path d="M -12 -86 C -16 -80 -17 -70 -16 -62 C -15 -59 -11 -59 -11 -62 C -11 -70 -10 -79 -8 -84 Z" fill="#ececec" stroke="#1a1a1a" stroke-width="1.7" vector-effect="non-scaling-stroke" stroke-linejoin="round" stroke-linecap="round"/>
    <path d="M -6 -94 C -13 -91 -16 -86 -16 -78 L -13 -50 L 15 -50 L 17 -78 C 17 -86 13 -91 6 -94 Z" fill="#ececec" stroke="#1a1a1a" stroke-width="1.7" vector-effect="non-scaling-stroke" stroke-linejoin="round" stroke-linecap="round"/>
    <path d="M 12 -86 C 19 -84 27 -80 32 -77 C 35 -75 33 -70 29 -71 C 23 -73 16 -75 10 -76 Z" fill="#ececec" stroke="#1a1a1a" stroke-width="1.7" vector-effect="non-scaling-stroke" stroke-linejoin="round" stroke-linecap="round"/>
    <path d="M 32 -77 C 36 -76 39 -77 39 -79 C 39 -81 36 -83 33 -82 C 31 -82 30 -80 30 -78 Z" fill="#ececec" stroke="#1a1a1a" stroke-width="1.7" vector-effect="non-scaling-stroke" stroke-linejoin="round" stroke-linecap="round"/>
    <path d="M -13 -55 L 15 -55" fill="none" stroke="#1a1a1a" stroke-width="1.05" vector-effect="non-scaling-stroke" stroke-linejoin="round" stroke-linecap="round"/>
    <path d="M -2 -98 L -2 -93 C 0 -91 4 -91 6 -93 L 6 -98 Z" fill="#ececec" stroke="#1a1a1a" stroke-width="1.7" vector-effect="non-scaling-stroke" stroke-linejoin="round" stroke-linecap="round"/>
    <path d="M -9 -109 C -10 -118 -6 -124 3 -124 C 12 -124 14 -117 13 -108 C 12 -102 8 -98 2 -98 C -4 -98 -8 -102 -9 -109 Z" fill="#ececec" stroke="#1a1a1a" stroke-width="1.7" vector-effect="non-scaling-stroke" stroke-linejoin="round" stroke-linecap="round"/>
    <path d="M -10 -110 C -13 -121 -6 -127 3 -127 C 12 -127 16 -120 14 -110 C 13 -115 10 -117 6 -117 C 1 -117 -4 -116 -7 -114 C -9 -113 -10 -111 -10 -110 Z" fill="#ececec" stroke="#1a1a1a" stroke-width="1.7" vector-effect="non-scaling-stroke" stroke-linejoin="round" stroke-linecap="round"/>
    <path d="M -10 -112 C -14 -104 -14 -96 -12 -92 C -9 -90 -7 -93 -8 -96 C -9 -101 -9 -108 -9 -110 Z" fill="#ececec" stroke="#1a1a1a" stroke-width="1.7" vector-effect="non-scaling-stroke" stroke-linejoin="round" stroke-linecap="round"/>
    <path d="M -9 -112 C -3 -114 -1 -108 -3 -100 C -4 -95 -8 -93 -10 -95 C -8 -100 -8 -108 -9 -110 Z" fill="#ececec" stroke="#1a1a1a" stroke-width="1.7" vector-effect="non-scaling-stroke" stroke-linejoin="round" stroke-linecap="round"/>
  </g>
  <g transform="translate(300 900) scale(2.9 2.9)">
    <path d="M -14 -52 L -15 -22 L -14 -8 L -4 -8 L -3 -22 L -1 -40 L -1 -52 Z" fill="#ececec" stroke="#1a1a1a" stroke-width="1.7" vector-effect="non-scaling-stroke" stroke-linejoin="round" stroke-linecap="round"/>
    <path d="M 1 -52 L 1 -40 L 3 -22 L 4 -8 L 14 -8 L 15 -22 L 14 -52 Z" fill="#ececec" stroke="#1a1a1a" stroke-width="1.7" vector-effect="non-scaling-stroke" stroke-linejoin="round" stroke-linecap="round"/>
    <path d="M -15 -10 C -19 -9 -21 -5 -20 -2 C -19 0 -16 1 -13 1 L -5 1 C -3 1 -2 -1 -3 -3 L -4 -10 Z" fill="#ececec" stroke="#1a1a1a" stroke-width="1.7" vector-effect="non-scaling-stroke" stroke-linejoin="round" stroke-linecap="round"/>
    <path d="M 15 -10 C 19 -9 21 -5 20 -2 C 19 0 16 1 13 1 L 5 1 C 3 1 2 -1 3 -3 L 4 -10 Z" fill="#ececec" stroke="#1a1a1a" stroke-width="1.7" vector-effect="non-scaling-stroke" stroke-linejoin="round" stroke-linecap="round"/>
    <path d="M -19 -84 C -26 -90 -33 -97 -37 -103 C -39 -106 -35 -110 -32 -107 C -27 -102 -20 -96 -15 -92 Z" fill="#ececec" stroke="#1a1a1a" stroke-width="1.7" vector-effect="non-scaling-stroke" stroke-linejoin="round" stroke-linecap="round"/>
    <path d="M -37 -103 C -40 -106 -44 -107 -45 -105 C -46 -103 -44 -100 -41 -99 C -38 -98 -36 -100 -36 -102 Z" fill="#ececec" stroke="#1a1a1a" stroke-width="1.7" vector-effect="non-scaling-stroke" stroke-linejoin="round" stroke-linecap="round"/>
    <path d="M 19 -84 C 21 -76 22 -66 21 -60 C 20 -57 16 -57 15 -60 C 15 -66 15 -76 15 -84 Z" fill="#ececec" stroke="#1a1a1a" stroke-width="1.7" vector-effect="non-scaling-stroke" stroke-linejoin="round" stroke-linecap="round"/>
    <path d="M 21 -60 C 23 -58 23 -54 21 -53 C 19 -51 16 -52 15 -55 C 15 -57 15 -59 15 -60 Z" fill="#ececec" stroke="#1a1a1a" stroke-width="1.7" vector-effect="non-scaling-stroke" stroke-linejoin="round" stroke-linecap="round"/>
    <path d="M -9 -92 C -16 -90 -20 -85 -20 -78 L -17 -50 L 17 -50 L 20 -78 C 20 -85 16 -90 9 -92 Z" fill="#ececec" stroke="#1a1a1a" stroke-width="1.7" vector-effect="non-scaling-stroke" stroke-linejoin="round" stroke-linecap="round"/>
    <path d="M -20 -84 C -24 -81 -25 -76 -24 -70 L -16 -71 L -16 -83 Z" fill="#ececec" stroke="#1a1a1a" stroke-width="1.7" vector-effect="non-scaling-stroke" stroke-linejoin="round" stroke-linecap="round"/>
    <path d="M 20 -84 C 24 -81 25 -76 24 -70 L 16 -71 L 16 -83 Z" fill="#ececec" stroke="#1a1a1a" stroke-width="1.7" vector-effect="non-scaling-stroke" stroke-linejoin="round" stroke-linecap="round"/>
    <path d="M -17 -55 L 17 -55" fill="none" stroke="#1a1a1a" stroke-width="1.05" vector-effect="non-scaling-stroke" stroke-linejoin="round" stroke-linecap="round"/>
    <path d="M -9 -92 C -4 -88 4 -88 9 -92" fill="none" stroke="#1a1a1a" stroke-width="1.05" vector-effect="non-scaling-stroke" stroke-linejoin="round" stroke-linecap="round"/>
    <path d="M -4 -96 L -4 -91 C -2 -89 2 -89 4 -91 L 4 -96 Z" fill="#ececec" stroke="#1a1a1a" stroke-width="1.7" vector-effect="non-scaling-stroke" stroke-linejoin="round" stroke-linecap="round"/>
    <path d="M -11 -107 C -12 -116 -9 -122 0 -122 C 9 -122 12 -116 11 -107 C 10 -101 6 -97 0 -97 C -6 -97 -10 -101 -11 -107 Z" fill="#ececec" stroke="#1a1a1a" stroke-width="1.7" vector-effect="non-scaling-stroke" stroke-linejoin="round" stroke-linecap="round"/>
    <path d="M -12 -108 C -14 -119 -8 -125 0 -125 C 8 -125 14 -119 12 -108 C 11 -112 9 -114 6 -115 C 2 -116 -3 -116 -7 -114 C -10 -113 -11 -111 -12 -108 Z" fill="#ececec" stroke="#1a1a1a" stroke-width="1.7" vector-effect="non-scaling-stroke" stroke-linejoin="round" stroke-linecap="round"/>
    <path d="M -12 -110 C -15 -104 -15 -98 -13 -94 C -11 -92 -9 -94 -10 -97 C -11 -101 -11 -106 -11 -108 Z" fill="#ececec" stroke="#1a1a1a" stroke-width="1.7" vector-effect="non-scaling-stroke" stroke-linejoin="round" stroke-linecap="round"/>
    <path d="M 12 -110 C 15 -104 15 -98 13 -94 C 11 -92 9 -94 10 -97 C 11 -101 11 -106 11 -108 Z" fill="#ececec" stroke="#1a1a1a" stroke-width="1.7" vector-effect="non-scaling-stroke" stroke-linejoin="round" stroke-linecap="round"/>
    <path d="M 11 -110 C 17 -110 21 -105 20 -98 C 19 -93 15 -91 13 -93 C 14 -98 13 -105 11 -108 Z" fill="#ececec" stroke="#1a1a1a" stroke-width="1.7" vector-effect="non-scaling-stroke" stroke-linejoin="round" stroke-linecap="round"/>
  </g>
  <g transform="translate(690 900) scale(-2.9 2.9)">
    <path d="M -4 -52 L -8 -24 L -11 -8 L -2 -6 L 2 -24 L 4 -40 L 4 -52 Z" fill="#ececec" stroke="#1a1a1a" stroke-width="1.7" vector-effect="non-scaling-stroke" stroke-linejoin="round" stroke-linecap="round"/>
    <path d="M -12 -9 C -16 -7 -18 -3 -16 0 C -15 2 -12 2 -9 1 L -1 -1 C 1 -2 1 -4 0 -6 L -2 -9 Z" fill="#ececec" stroke="#1a1a1a" stroke-width="1.7" vector-effect="non-scaling-stroke" stroke-linejoin="round" stroke-linecap="round"/>
    <path d="M 4 -52 L 6 -34 L 10 -16 L 11 -6 L 19 -8 L 18 -20 L 13 -38 L 12 -52 Z" fill="#ececec" stroke="#1a1a1a" stroke-width="1.7" vector-effect="non-scaling-stroke" stroke-linejoin="round" stroke-linecap="round"/>
    <path d="M 11 -8 C 8 -6 7 -2 9 0 C 11 2 14 2 16 1 L 24 -3 C 26 -4 25 -7 24 -8 L 21 -11 Z" fill="#ececec" stroke="#1a1a1a" stroke-width="1.7" vector-effect="non-scaling-stroke" stroke-linejoin="round" stroke-linecap="round"/>
    <path d="M -12 -86 C -16 -80 -17 -70 -16 -62 C -15 -59 -11 -59 -11 -62 C -11 -70 -10 -79 -8 -84 Z" fill="#ececec" stroke="#1a1a1a" stroke-width="1.7" vector-effect="non-scaling-stroke" stroke-linejoin="round" stroke-linecap="round"/>
    <path d="M -6 -94 C -13 -91 -16 -86 -16 -78 L -13 -50 L 15 -50 L 17 -78 C 17 -86 13 -91 6 -94 Z" fill="#ececec" stroke="#1a1a1a" stroke-width="1.7" vector-effect="non-scaling-stroke" stroke-linejoin="round" stroke-linecap="round"/>
    <path d="M 12 -86 C 19 -84 27 -80 32 -77 C 35 -75 33 -70 29 -71 C 23 -73 16 -75 10 -76 Z" fill="#ececec" stroke="#1a1a1a" stroke-width="1.7" vector-effect="non-scaling-stroke" stroke-linejoin="round" stroke-linecap="round"/>
    <path d="M 32 -77 C 36 -76 39 -77 39 -79 C 39 -81 36 -83 33 -82 C 31 -82 30 -80 30 -78 Z" fill="#ececec" stroke="#1a1a1a" stroke-width="1.7" vector-effect="non-scaling-stroke" stroke-linejoin="round" stroke-linecap="round"/>
    <path d="M -13 -55 L 15 -55" fill="none" stroke="#1a1a1a" stroke-width="1.05" vector-effect="non-scaling-stroke" stroke-linejoin="round" stroke-linecap="round"/>
    <path d="M -2 -98 L -2 -93 C 0 -91 4 -91 6 -93 L 6 -98 Z" fill="#ececec" stroke="#1a1a1a" stroke-width="1.7" vector-effect="non-scaling-stroke" stroke-linejoin="round" stroke-linecap="round"/>
    <path d="M -9 -109 C -10 -118 -6 -124 3 -124 C 12 -124 14 -117 13 -108 C 12 -102 8 -98 2 -98 C -4 -98 -8 -102 -9 -109 Z" fill="#ececec" stroke="#1a1a1a" stroke-width="1.7" vector-effect="non-scaling-stroke" stroke-linejoin="round" stroke-linecap="round"/>
    <path d="M -10 -110 C -13 -121 -6 -127 3 -127 C 12 -127 16 -120 14 -110 C 13 -115 10 -117 6 -117 C 1 -117 -4 -116 -7 -114 C -9 -113 -10 -111 -10 -110 Z" fill="#ececec" stroke="#1a1a1a" stroke-width="1.7" vector-effect="non-scaling-stroke" stroke-linejoin="round" stroke-linecap="round"/>
    <path d="M -10 -112 C -14 -104 -14 -96 -12 -92 C -9 -90 -7 -93 -8 -96 C -9 -101 -9 -108 -9 -110 Z" fill="#ececec" stroke="#1a1a1a" stroke-width="1.7" vector-effect="non-scaling-stroke" stroke-linejoin="round" stroke-linecap="round"/>
    <path d="M -9 -112 C -3 -114 -1 -108 -3 -100 C -4 -95 -8 -93 -10 -95 C -8 -100 -8 -108 -9 -110 Z" fill="#ececec" stroke="#1a1a1a" stroke-width="1.7" vector-effect="non-scaling-stroke" stroke-linejoin="round" stroke-linecap="round"/>
  </g>
  <line x1="0" y1="957" x2="960" y2="957" stroke="#1a1a1a" stroke-width="3"/>
</svg>
